<?xml version="1.0" standalone="no"?>
<!DOCTYPE svg PUBLIC "-//W3C//DTD SVG 20010904//EN"
 "http://www.w3.org/TR/2001/REC-SVG-20010904/DTD/svg10.dtd">
<svg version="1.0" xmlns="http://www.w3.org/2000/svg"
 width="300.000000pt" height="300.000000pt" viewBox="0 0 300.000000 300.000000"
 preserveAspectRatio="xMidYMid meet">
<metadata>
Created by potrace 1.10, written by Peter Selinger 2001-2011
</metadata>
<g transform="translate(0.000000,300.000000) scale(0.100000,-0.100000)"
fill="#000000" stroke="none">
<path d="M1405 2372 c-69 -24 -653 -347 -688 -380 -16 -15 -41 -47 -55 -72
l-27 -45 -3 -337 c-2 -216 1 -351 8 -377 5 -21 25 -61 43 -87 28 -43 69 -71
365 -255 183 -114 353 -212 378 -219 62 -18 154 -8 206 22 180 103 629 396
665 433 64 70 73 108 73 327 0 119 -4 188 -10 188 -6 0 -10 -66 -10 -178 0
-215 -10 -262 -73 -326 -44 -45 -635 -421 -697 -442 -49 -18 -106 -16 -165 5
-27 9 -169 92 -315 183 -398 250 -379 236 -414 298 l-31 55 -3 323 c-3 363 1
397 61 467 38 44 209 141 228 129 8 -4 9 -3 5 4 -8 14 50 46 66 36 7 -5 8 -3
3 6 -6 10 -4 12 9 7 9 -4 15 -3 12 2 -8 12 330 199 391 217 60 18 97 17 158
-4 77 -27 654 -343 690 -378 42 -41 65 -94 72 -160 8 -73 27 -70 21 4 -5 69
-40 144 -86 182 -46 38 -658 366 -707 379 -57 15 -112 13 -170 -7z"/>
<path d="M1403 2325 c-30 -13 -33 -18 -33 -57 0 -39 6 -49 56 -100 31 -32 58
-58 60 -58 2 0 4 52 4 115 l0 115 -27 0 c-16 -1 -43 -7 -60 -15z m48 -52 c2
-16 3 -40 1 -55 -3 -26 -4 -27 -27 -12 -28 18 -38 50 -22 75 18 29 44 24 48
-8z"/>
<path d="M1510 2018 l0 -323 32 33 c32 32 32 32 15 61 -16 27 -16 31 -1 45 12
12 20 13 35 6 23 -13 25 -33 4 -50 -27 -23 -16 -30 20 -13 29 14 35 22 35 48
0 19 8 39 19 49 16 15 18 28 14 99 l-5 82 51 50 c31 29 51 58 51 71 0 27 22
37 46 20 21 -16 12 -46 -14 -46 -10 0 -39 -24 -65 -54 l-47 -55 0 -84 c0 -63
-4 -88 -15 -97 -17 -14 -20 -60 -4 -60 5 0 8 4 4 9 -3 5 18 28 47 50 l53 41
114 5 115 4 68 -52 c49 -37 68 -58 68 -74 0 -22 3 -23 90 -23 l90 0 0 28 c0
61 -29 129 -73 168 -34 32 -479 284 -501 284 -3 0 -3 -12 0 -27 4 -24 -3 -36
-50 -83 l-56 -54 0 -68 c0 -38 6 -77 12 -88 10 -16 10 -23 -3 -35 -9 -9 -23
-13 -32 -9 -19 7 -23 39 -7 49 6 3 10 38 10 77 l0 70 55 63 c69 78 74 112 20
138 -20 9 -38 17 -40 17 -3 0 -5 -20 -5 -44 0 -26 -6 -48 -14 -56 -8 -6 -16
-23 -18 -36 -2 -14 -7 -23 -13 -22 -14 4 -7 50 11 69 8 9 14 36 14 61 0 44 -1
46 -40 62 -22 9 -52 16 -65 16 l-25 0 0 -322z m90 277 c10 -13 10 -19 -3 -33
-14 -15 -17 -41 -16 -140 1 -67 4 -122 9 -122 4 0 11 -8 14 -17 8 -21 -17 -48
-38 -40 -24 9 -32 38 -14 51 20 15 20 244 0 268 -7 9 -10 23 -6 32 8 20 38 21
54 1z m103 -77 c6 -17 -12 -50 -22 -44 -10 7 -2 56 9 56 5 0 10 -6 13 -12z
m265 -125 c48 -25 107 -57 132 -71 25 -14 62 -34 82 -45 51 -28 87 -67 103
-113 19 -55 12 -66 -40 -66 -45 0 -59 5 -88 35 -18 19 -52 49 -77 68 -43 33
-46 34 -157 37 -97 3 -119 1 -153 -16 l-40 -19 -2 26 c-2 27 -1 65 1 92 2 34
98 119 134 119 10 0 58 -21 105 -47z"/>
<path d="M1323 2285 c-17 -12 -23 -26 -23 -53 0 -32 8 -45 55 -92 30 -30 55
-62 55 -71 0 -12 6 -16 20 -12 25 7 38 -22 22 -48 -7 -11 -12 -62 -12 -127 0
-103 1 -110 25 -132 l25 -23 0 174 0 175 -70 69 c-62 61 -69 73 -72 112 -3 43
-3 43 -25 28z"/>
<path d="M1252 2246 c-21 -11 -22 -14 -7 -26 9 -7 14 -21 12 -31 -3 -11 16
-37 54 -75 l59 -58 0 -78 c0 -42 5 -80 10 -83 6 -4 10 27 10 86 l0 91 -54 59
c-41 43 -56 68 -58 93 -3 33 -4 34 -26 22z"/>
<path d="M1190 2202 c0 -10 24 -42 54 -71 l53 -53 -49 -141 c-28 -78 -75 -217
-106 -309 -32 -92 -59 -167 -62 -168 -3 0 -50 131 -105 290 l-100 289 -55 -30
c-72 -41 -95 -63 -122 -118 -23 -45 -23 -50 -20 -385 3 -376 3 -378 74 -441
35 -33 94 -75 103 -75 8 0 5 499 -3 545 -16 88 -27 4 -30 -227 -3 -246 -5
-257 -44 -225 -8 6 -26 28 -39 47 l-24 35 -3 337 c-3 322 -2 339 17 375 34 62
99 122 120 108 10 -5 52 -113 70 -175 9 -33 88 -256 109 -310 5 -14 19 -33 31
-44 18 -16 23 -17 37 -5 15 12 60 99 56 106 -2 4 46 131 54 144 7 13 34 -36
34 -62 0 -10 10 -25 22 -33 21 -15 21 -17 6 -49 -23 -47 -101 -254 -113 -297
-4 -14 -16 -47 -28 -73 -18 -44 -22 -48 -51 -45 -34 3 -30 -5 -142 320 -14 42
-37 87 -50 99 -13 12 -24 20 -24 17 0 -4 103 -308 145 -430 l17 -48 58 0 57 0
77 223 c42 122 76 228 76 235 0 6 3 12 8 12 4 0 6 -141 4 -312 l-3 -313 -60
-61 c-72 -73 -72 -88 2 -133 27 -17 52 -31 54 -31 3 0 2 24 -1 54 -5 44 -3 59
12 80 18 24 44 35 44 18 0 -5 -9 -17 -20 -27 -16 -14 -20 -31 -20 -80 0 -59 8
-75 36 -75 2 0 4 24 4 54 0 37 5 58 16 67 13 10 15 24 11 62 -5 42 -4 48 11
45 13 -3 16 -13 13 -53 -1 -28 -9 -57 -16 -65 -7 -8 -15 -39 -17 -69 -3 -52
-1 -56 27 -72 17 -10 44 -19 60 -21 l30 -3 3 383 2 382 -38 0 c-26 0 -45 7
-57 20 -10 11 -28 20 -40 20 -29 0 -41 29 -20 49 18 18 50 4 50 -22 0 -25 26
-44 68 -51 30 -6 38 -4 35 6 -4 16 -198 203 -218 210 -11 4 -12 9 -5 17 8 8
40 -17 115 -89 70 -67 106 -95 108 -85 5 21 -187 204 -214 205 -28 0 -39 29
-19 49 12 12 19 13 33 4 9 -6 16 -18 16 -26 -1 -8 41 -54 92 -102 66 -60 94
-81 94 -68 0 10 -36 51 -80 91 -69 63 -80 78 -80 106 0 37 -13 52 -50 58 -19
2 -25 9 -25 28 0 20 5 25 25 25 18 0 26 -6 28 -21 2 -12 12 -30 23 -40 10 -9
19 -29 19 -43 0 -19 19 -45 70 -96 l70 -69 0 36 c0 31 -7 42 -50 78 l-50 42 0
63 c0 61 -1 62 -25 57 -28 -5 -45 22 -26 41 6 6 11 42 11 82 l0 70 -52 58
c-28 32 -62 63 -76 68 -18 7 -23 15 -19 29 3 11 1 20 -4 20 -5 0 -9 -8 -9 -18z
m140 -228 c0 -58 -23 -103 -53 -104 -10 0 -1 50 20 108 20 55 33 53 33 -4z
m77 -591 c21 -10 41 -22 45 -28 14 -18 9 -190 -6 -210 -12 -17 -14 -16 -31 13
-11 19 -30 34 -46 37 -24 5 -29 13 -33 48 -5 35 -4 78 3 145 1 17 24 15 68 -5z
m-10 -229 c3 -8 1 -20 -6 -27 -6 -6 -11 -42 -11 -80 l0 -69 -62 -70 c-34 -39
-62 -80 -63 -92 0 -31 -49 -30 -53 2 -2 12 2 22 8 22 7 0 43 30 81 67 l69 66
0 64 c0 35 -5 72 -12 82 -6 10 -8 26 -5 35 8 20 46 21 54 0z m60 -70 c3 -9 1
-25 -5 -35 -16 -25 -17 -339 -1 -339 21 0 4 -45 -19 -48 -25 -4 -41 23 -23 41
15 15 15 321 -1 346 -15 24 -4 51 22 51 11 0 23 -7 27 -16z"/>
<path d="M1405 1879 l1 -130 42 -42 c37 -37 42 -39 42 -20 0 13 -14 33 -35 50
l-35 28 0 117 c0 64 -3 119 -8 122 -4 2 -7 -54 -7 -125z"/>
<path d="M1784 1739 c25 -28 51 -69 58 -91 11 -37 14 -39 42 -34 33 6 76 47
76 71 0 34 -138 105 -203 105 -15 0 -10 -10 27 -51z m91 -19 c49 -30 58 -70
16 -70 -10 0 -27 17 -39 39 -33 59 -29 63 23 31z"/>
<path d="M1625 1758 c-86 -44 -85 -47 12 -85 136 -53 182 -67 190 -59 11 11
-34 90 -75 130 -41 42 -68 45 -127 14z m101 -24 c22 -15 54 -61 54 -79 0 -10
-21 -4 -90 26 -72 33 -82 48 -39 60 38 11 48 10 75 -7z"/>
<path d="M1517 1673 c-2 -4 -4 -48 -4 -97 l0 -88 46 6 c118 15 282 26 292 20
8 -4 9 4 4 27 -10 46 -12 49 -42 49 -14 0 -70 18 -124 40 -106 42 -164 57
-172 43z m115 -47 c75 -32 105 -44 141 -56 42 -13 43 -18 6 -25 -21 -5 -192
-24 -212 -25 -14 0 -28 55 -22 87 7 38 31 43 87 19z"/>
<path d="M1969 1591 c-7 -39 -10 -73 -8 -75 2 -2 21 -6 42 -9 44 -7 47 4 21
80 -28 84 -40 85 -55 4z"/>
<path d="M1937 1618 c-10 -10 -30 -21 -46 -24 -27 -6 -28 -7 -18 -40 6 -19 16
-34 23 -34 7 0 19 -3 28 -6 13 -5 16 1 16 29 0 20 5 48 10 63 13 33 10 36 -13
12z"/>
<path d="M2060 1565 c0 0 -1 -39 -3 -88 l-2 -87 48 0 47 0 0 -95 0 -95 -65
-50 -64 -51 -114 -4 -114 -5 -41 35 c-22 19 -43 35 -46 35 -3 0 -6 -44 -6 -98
l0 -98 53 -50 c28 -28 60 -54 70 -57 21 -8 23 -43 2 -51 -23 -9 -45 4 -45 27
0 11 -23 44 -51 74 l-51 53 3 108 c2 94 1 107 -14 110 -15 3 -17 -9 -17 -120
l0 -123 32 -26 c36 -30 33 -59 -7 -59 -18 0 -25 5 -25 19 0 11 -4 23 -10 26
-6 4 -10 65 -10 150 0 132 -2 145 -19 155 -11 5 -21 10 -23 10 -8 0 4 -188 14
-207 21 -41 -30 -74 -52 -34 -7 15 -6 23 5 35 11 11 15 39 14 118 0 102 0 103
-30 126 l-29 24 0 -164 0 -164 40 -39 c38 -37 40 -42 40 -102 0 -35 4 -63 10
-63 6 0 10 -11 10 -24 0 -30 -28 -42 -49 -21 -13 12 -13 19 -3 35 6 11 12 46
12 78 0 52 -3 62 -30 87 l-30 29 0 -147 c0 -81 3 -147 8 -147 26 0 86 26 154
67 69 42 78 51 78 77 0 17 -10 40 -22 53 -12 13 -17 23 -11 23 21 0 52 -45 46
-68 -3 -12 -2 -22 2 -22 4 0 116 68 248 152 260 164 287 189 306 279 6 27 11
123 11 212 l0 162 -135 0 c-74 0 -135 0 -135 0z m224 -41 c14 -5 16 -29 16
-162 0 -153 -9 -210 -37 -240 -7 -7 -13 -17 -13 -22 0 -18 -356 -230 -387
-230 -12 0 -44 22 -76 53 -53 50 -55 54 -53 102 1 44 3 50 21 46 11 -2 73 -6
137 -8 129 -5 145 0 225 71 50 43 63 76 63 155 0 90 -12 117 -56 126 -33 6
-34 7 -34 55 0 29 5 50 13 53 18 8 162 8 181 1z m-580 -727 c9 -15 6 -23 -17
-43 -35 -30 -53 -31 -61 -1 -8 29 -8 72 0 80 10 10 66 -17 78 -36z"/>
<path d="M1740 1489 c-63 -5 -140 -12 -170 -17 l-55 -7 -2 -81 c-2 -69 1 -84
17 -99 24 -22 64 -10 152 47 75 49 118 68 153 68 23 0 25 3 25 50 0 28 -1 49
-2 49 -2 -1 -55 -6 -118 -10z m96 -30 c9 -15 -13 -33 -61 -52 -22 -8 -71 -34
-110 -56 -80 -47 -115 -53 -116 -18 0 12 -2 38 -4 58 -4 48 18 58 139 66 50 3
92 6 93 7 9 7 53 3 59 -5z"/>
<path d="M1884 1450 c1 -39 5 -50 17 -50 9 0 27 -9 41 -19 l24 -20 -15 62 c-8
34 -16 62 -16 63 0 1 -12 4 -26 7 -25 6 -26 6 -25 -43z"/>
<path d="M1960 1478 c0 -7 9 -44 19 -83 l19 -70 15 37 c9 20 19 54 23 76 5 35
4 40 -17 45 -37 10 -59 8 -59 -5z"/>
<path d="M1790 1366 c-19 -7 -64 -32 -100 -55 -36 -23 -77 -45 -92 -48 -16 -3
-28 -9 -28 -12 0 -15 97 -53 145 -58 49 -5 52 -4 82 31 27 29 63 116 63 148 0
11 -29 9 -70 -6z m30 -42 c0 -24 -38 -82 -62 -95 -21 -11 -94 -3 -103 11 -7
11 6 22 75 65 60 38 90 44 90 19z"/>
<path d="M1872 1328 c-6 -29 -25 -72 -41 -95 l-29 -41 43 14 c52 18 125 79
125 104 0 19 -53 70 -73 70 -7 0 -18 -24 -25 -52z m58 3 c0 -20 -20 -61 -30
-61 -13 0 -13 26 0 51 11 20 30 26 30 10z"/>
</g>
</svg>
